<svg xmlns="http://www.w3.org/2000/svg" viewBox="0 0 512 512">
  <defs>
    <clipPath id="logo">
      <rect x="0" y="0" width="1024" height="1024" />
    </clipPath>
  </defs>
  <g clip-path="url(#logo)">
    <g transform="scale(1.8)">
      <g fill="none" fill-rule="none" stroke-miterlimit="10" style="mix-blend-mode:normal" text-anchor="none">
        <g fill="#000000" id="symbol">
          <path d="m192.14 177.18c1.3 0.029 2.606 0.051 3.916 0.066-1.238-0.016-2.471-0.04-3.698-0.072 0.173-5e-3 0.346-9e-3 0.518-0.013 1.555 0.047 3.12 0.079 4.696 0.094-1.418-0.018-2.822-0.053-4.211-0.105 0.296-7e-3 0.594-0.013 0.891-0.019 1.498 0.074 3.018 0.118 4.557 0.13-1.145-0.017-2.267-0.068-3.36-0.15 1.392-0.021 2.791-0.032 4.197-0.032 1.435 0 2.865 0.011 4.287 0.033-1.117 0.082-2.266 0.133-3.441 0.149 1.565-0.011 3.109-0.054 4.629-0.128 0.286 5e-3 0.572 0.011 0.857 0.018-1.39 0.052-2.793 0.087-4.208 0.104 1.574-0.015 3.136-0.046 4.687-0.093l0.477 0.012c-1.347 0.035-2.7 0.061-4.06 0.076 1.448-0.014 2.891-0.037 4.327-0.069 56.695 1.532 101.52 20.181 101.52 43.249 0 23.652-47.119 42.659-105.84 43.333 70.941-0.675 127.73-23.647 127.73-52.119 0-18.062-22.852-33.91-57.671-43.257 34.819-9.347 57.671-25.195 57.671-43.256 0-28.901-58.512-52.135-130.94-52.135s-130.66 23.517-130.66 52.135c0 17.921 22.946 33.841 57.816 43.239-34.927 9.394-57.816 25.331-57.816 43.274 0 28.139 56.572 51.347 127.05 52.115-58.545-0.748-105.2-19.725-105.2-43.329 0-23.074 44.585-41.728 101.28-43.25zm-61.7-9.749c-24.192-7.927-39.581-19.957-39.581-33.513 0-24.084 48.57-43.352 108.79-43.352 60.216 0 109.07 19.268 109.07 43.352 0 13.534-15.429 25.547-39.632 33.475-1.754-0.436-3.536-0.856-5.344-1.26 14.382-6.176 23.154-14.423 23.154-23.436 0-18.984-38.913-34.851-87.2-34.851s-87.2 15.584-87.2 34.851c0 9.124 8.79 17.358 23.143 23.5-1.759 0.396-3.491 0.807-5.198 1.234zm125.66-2.871c5.845-3.901 9.198-8.468 9.198-13.36 0-14.45-28.404-26.067-65.613-26.067s-65.329 11.9-65.329 26.067c0 4.847 3.324 9.428 9.175 13.358 4.244-0.808 8.615-1.528 13.099-2.153-0.277-0.791-0.421-1.601-0.421-2.425 0-9.633 19.315-17.283 43.458-17.283 24.144 0 43.742 7.65 43.742 17.283 0 0.827-0.144 1.639-0.423 2.433 4.488 0.624 8.865 1.341 13.114 2.147z" fill-rule="evenodd"/>
          <path d="m197.57 263.77c-35.888-0.444-63.211-12.159-63.211-26.054 0-14.167 28.12-26.067 65.329-26.067s65.613 11.617 65.613 26.067c0 14.174-28.147 25.622-63.533 26.055 47.322-0.439 85.125-15.847 85.125-34.558 0-18.984-38.913-34.851-87.2-34.851s-87.2 15.584-87.2 34.851c0 18.982 38.047 34.114 85.077 34.557z" fill-rule="nonzero"/>
          <path d="m178.06 255.28c0 4.702 9.204 8.324 20.741 8.494-23.467-0.182-42.595-7.764-42.595-17.281 0-9.633 19.315-17.283 43.458-17.283 24.144 0 43.742 7.65 43.742 17.283 0 9.525-19.156 17.11-42.922 17.281 11.815-0.164 21.034-3.788 21.034-8.494 0-4.817-10.509-8.784-21.871-8.784s-21.587 3.967-21.587 8.784z" fill-rule="nonzero"/>
        </g>
      </g>
    </g>
  </g>
</svg>
